# xmcd CD database file
#
# Track frame offsets:
#	150
#	32035
#	45385
#	63760
#	90010
#	121885
#	135310
#	158710
#	186085
#	195160
#	211885
#	225535
#
# Disc length: 3439 seconds
#
# Revision: 0
# Processed by: cddbd v1.5.2PL0 Copyright (c) Steve Scherf et al.
# Submitted via: CDex 1.51
#
DISCID=830d6d0c
DTITLE=Paquito D'Rivera - The Jazz Chamber Trio
DYEAR=2005
DGENRE=Jazz
TTITLE0=Preludio y Merengue
TTITLE1=Difficult
TTITLE2=Recorda A Papá
TTITLE3=A Night in Tunisia
TTITLE4=Alfonsina y el Mar
TTITLE5=Kalimba
TTITLE6=Five After
TTITLE7=Cristal
TTITLE8=Improvisation (Saxophone Solo)
TTITLE9=A Fuego Lento
TTITLE10=Carinhoso
TTITLE11=Niebla y Cemento
EXTD=YEAR: 2005
EXTT0=
EXTT1=
EXTT2=
EXTT3=
EXTT4=
EXTT5=
EXTT6=
EXTT7=
EXTT8=
EXTT9=
EXTT10=
EXTT11=
PLAYORDER=
